# This file uses centimeters as units for non-parametric coordinates.

mtllib amulet_gem_Javidi's_Adeventures.0003.mtl
g default
v 4.010834 10.338909 9.680256
v 4.316199 10.644273 9.680256
v 4.010834 10.338909 9.584559
v 4.316199 10.644273 9.584559
v 6.105911 10.338909 9.680256
v 5.800547 10.644273 9.680256
v 6.105911 10.338909 9.584559
v 5.800547 10.644273 9.584559
v 4.010834 9.422662 9.584559
v 4.316199 9.117298 9.584559
v 4.010834 9.422662 9.680256
v 4.316199 9.117298 9.680256
v 5.800547 9.117298 9.584559
v 6.105911 9.422662 9.584559
v 6.105911 9.422662 9.680256
v 5.800547 9.117298 9.680256
v 4.558799 10.394705 9.231850
v 4.353252 10.189158 9.231850
v 5.557946 10.394705 9.231850
v 5.763493 10.189158 9.231850
v 5.763493 9.572413 9.231850
v 5.557946 9.366866 9.231850
v 4.558799 9.366866 9.231850
v 4.353252 9.572413 9.231850
v 4.652397 10.298419 9.172861
v 4.485361 10.131382 9.172861
v 5.464348 10.298419 9.172861
v 5.631385 10.131382 9.172861
v 5.631385 9.630188 9.172861
v 5.464348 9.463152 9.172861
v 4.652397 9.463152 9.172861
v 4.485361 9.630188 9.172861
v 4.558860 9.366928 10.064945
v 4.353338 9.572450 10.064945
v 5.557885 9.366928 10.064945
v 5.763407 9.572450 10.064945
v 5.763407 10.189121 10.064945
v 5.557885 10.394643 10.064945
v 4.558860 10.394643 10.064945
v 4.353338 10.189121 10.064945
v 4.650725 9.461431 10.132727
v 4.483000 9.629156 10.132727
v 5.466020 9.461431 10.132727
v 5.633745 9.629156 10.132727
v 5.633745 10.132415 10.132727
v 5.466020 10.300140 10.132727
v 4.650725 10.300140 10.132727
v 4.483000 10.132415 10.132727
v 4.319304 10.641079 9.685179
v 5.797441 10.641079 9.685179
v 6.101528 10.336992 9.685179
v 6.101528 9.424579 9.685179
v 5.797441 9.120492 9.685179
v 4.319304 9.120492 9.685179
v 4.015217 9.424579 9.685179
v 4.015217 10.336992 9.685179
v 4.316199 10.644273 9.672069
v 5.800547 10.644273 9.672069
v 6.105911 10.338909 9.672069
v 6.105911 9.422662 9.672069
v 5.800547 9.117298 9.672069
v 4.316199 9.117298 9.672069
v 4.010834 9.422662 9.672069
v 4.010834 10.338909 9.672069
v 4.556418 10.397156 10.061072
v 5.560328 10.397156 10.061072
v 5.766855 10.190628 10.061072
v 5.766855 9.570943 10.061072
v 5.560328 9.364415 10.061072
v 4.556418 9.364415 10.061072
v 4.349890 9.570943 10.061072
v 4.349890 10.190628 10.061072
v 4.562940 10.390446 10.067955
v 5.553805 10.390446 10.067955
v 5.757649 10.186602 10.067955
v 5.757649 9.574969 10.067955
v 5.553805 9.371125 10.067955
v 4.562940 9.371125 10.067955
v 4.359097 9.574969 10.067955
v 4.359097 10.186602 10.067955
v 4.645346 10.305673 10.128758
v 5.471399 10.305673 10.128758
v 5.641337 10.135735 10.128758
v 5.641337 9.625836 10.128758
v 5.471399 9.455898 10.128758
v 4.645346 9.455898 10.128758
v 4.475408 9.625836 10.128758
v 4.475408 10.135735 10.128758
v 4.014745 10.337198 9.580531
v 4.014745 9.424373 9.580531
v 4.318970 9.120148 9.580531
v 5.797776 9.120148 9.580531
v 6.102000 9.424373 9.580531
v 6.102000 10.337198 9.580531
v 5.797776 10.641423 9.580531
v 4.318970 10.641423 9.580531
v 4.010834 10.338909 9.588994
v 4.010834 9.422662 9.588994
v 4.316199 9.117298 9.588994
v 5.800547 9.117298 9.588994
v 6.105911 9.422662 9.588994
v 6.105911 10.338909 9.588994
v 5.800547 10.644273 9.588994
v 4.316199 10.644273 9.588994
v 4.350348 10.190428 9.234842
v 4.350348 9.571143 9.234842
v 4.556742 9.364750 9.234842
v 5.560004 9.364750 9.234842
v 5.766397 9.571143 9.234842
v 5.766397 10.190428 9.234842
v 5.560004 10.396821 9.234842
v 4.556742 10.396821 9.234842
v 4.359677 10.186348 9.228981
v 4.359677 9.575223 9.228981
v 4.563351 9.371549 9.228981
v 5.553394 9.371549 9.228981
v 5.757068 9.575223 9.228981
v 5.757068 10.186348 9.228981
v 5.553394 10.390022 9.228981
v 4.563351 10.390022 9.228981
v 4.480307 10.133593 9.175118
v 4.480307 9.627978 9.175118
v 4.648817 9.459468 9.175118
v 5.467929 9.459468 9.175118
v 5.636439 9.627978 9.175118
v 5.636439 10.133593 9.175118
v 5.467929 10.302102 9.175118
v 4.648817 10.302102 9.175118
vt 0.375000 0.299995
vt 0.625000 0.299995
vt 0.375000 0.450005
vt 0.625000 0.799995
vt 0.625000 0.950005
vt 0.588562 1.000000
vt 0.411438 1.000000
vt 0.375000 0.950005
vt 0.411438 0.250000
vt 0.588562 0.000000
vt 0.174995 0.250000
vt 0.174995 0.000000
vt 0.325005 0.000000
vt 0.411438 0.750000
vt 0.588562 0.500000
vt 0.674995 0.250000
vt 0.825005 0.000000
vt 0.825005 0.250000
vt 0.411438 0.000000
vt 0.325005 0.250000
vt 0.674995 0.000000
vt 0.588562 0.250000
vt 0.411438 0.500000
vt 0.375000 0.799995
vt 0.625000 0.450005
vt 0.588562 0.750000
vt 0.375000 0.299995
vt 0.411438 0.250000
vt 0.588562 0.250000
vt 0.625000 0.299995
vt 0.625000 0.450005
vt 0.588562 0.500000
vt 0.411438 0.500000
vt 0.375000 0.450005
vt 0.375000 0.299995
vt 0.411438 0.250000
vt 0.588562 0.250000
vt 0.625000 0.299995
vt 0.625000 0.450005
vt 0.588562 0.500000
vt 0.411438 0.500000
vt 0.375000 0.450005
vt 0.375000 0.799995
vt 0.411438 0.750000
vt 0.588562 0.750000
vt 0.625000 0.799995
vt 0.625000 0.950005
vt 0.588562 1.000000
vt 0.411438 1.000000
vt 0.375000 0.950005
vt 0.375000 0.799995
vt 0.411438 0.750000
vt 0.588562 0.750000
vt 0.625000 0.799995
vt 0.625000 0.950005
vt 0.588562 1.000000
vt 0.411438 1.000000
vt 0.375000 0.950005
vt 0.411438 1.000000
vt 0.588562 1.000000
vt 0.625000 0.950005
vt 0.625000 0.799995
vt 0.588562 0.750000
vt 0.411438 0.750000
vt 0.375000 0.799995
vt 0.375000 0.950005
vt 0.411438 0.021387
vt 0.588562 0.021387
vt 0.674995 0.021387
vt 0.670718 0.025664
vt 0.825005 0.021387
vt 0.625000 0.770054
vt 0.588562 0.728613
vt 0.411438 0.728613
vt 0.174995 0.021387
vt 0.375000 0.770054
vt 0.325005 0.021387
vt 0.411438 1.000000
vt 0.588562 1.000000
vt 0.625000 0.950005
vt 0.625000 0.799995
vt 0.588562 0.750000
vt 0.411438 0.750000
vt 0.375000 0.799995
vt 0.375000 0.950005
vt 0.411438 1.000000
vt 0.588562 1.000000
vt 0.625000 0.950005
vt 0.625000 0.799995
vt 0.588562 0.750000
vt 0.411438 0.750000
vt 0.375000 0.799995
vt 0.375000 0.950005
vt 0.411438 1.000000
vt 0.588562 1.000000
vt 0.625000 0.950005
vt 0.625000 0.799995
vt 0.588562 0.750000
vt 0.411438 0.750000
vt 0.375000 0.799995
vt 0.375000 0.950005
vt 0.375000 0.299995
vt 0.375000 0.450005
vt 0.411438 0.500000
vt 0.588562 0.500000
vt 0.625000 0.450005
vt 0.625000 0.299995
vt 0.588562 0.250000
vt 0.411438 0.250000
vt 0.325005 0.238414
vt 0.174995 0.238414
vt 0.375000 0.466225
vt 0.411438 0.511586
vt 0.588562 0.511586
vt 0.825005 0.238414
vt 0.625000 0.466225
vt 0.674995 0.238414
vt 0.627317 0.286092
vt 0.588562 0.238414
vt 0.411438 0.238414
vt 0.375000 0.299995
vt 0.375000 0.450005
vt 0.411438 0.500000
vt 0.588562 0.500000
vt 0.625000 0.450005
vt 0.625000 0.299995
vt 0.588562 0.250000
vt 0.411438 0.250000
vt 0.375000 0.299995
vt 0.375000 0.450005
vt 0.411438 0.500000
vt 0.588562 0.500000
vt 0.625000 0.450005
vt 0.625000 0.299995
vt 0.588562 0.250000
vt 0.411438 0.250000
vt 0.375000 0.299995
vt 0.375000 0.450005
vt 0.411438 0.500000
vt 0.588562 0.500000
vt 0.625000 0.450005
vt 0.625000 0.299995
vt 0.588562 0.250000
vt 0.411438 0.250000
vn 0.000000 1.000000 -0.000000
vn 0.000000 1.000000 -0.000000
vn 0.000000 1.000000 -0.000000
vn 0.000000 1.000000 -0.000000
vn 0.000000 -1.000000 0.000000
vn 0.000000 -1.000000 0.000000
vn 0.000000 -1.000000 0.000000
vn 0.000000 -1.000000 0.000000
vn 1.000000 0.000000 0.000000
vn 1.000000 0.000000 0.000000
vn 1.000000 0.000000 0.000000
vn 1.000000 0.000000 0.000000
vn -1.000000 0.000000 -0.000000
vn -1.000000 0.000000 -0.000000
vn -1.000000 0.000000 -0.000000
vn -1.000000 0.000000 -0.000000
vn 0.000000 -0.000000 -1.000000
vn 0.000000 -0.000000 -1.000000
vn 0.000000 -0.000000 -1.000000
vn 0.000000 -0.000000 -1.000000
vn 0.000000 -0.000000 -1.000000
vn 0.000000 -0.000000 -1.000000
vn 0.000000 -0.000000 -1.000000
vn 0.000000 -0.000000 -1.000000
vn 0.000000 -0.000000 1.000000
vn 0.000000 -0.000000 1.000000
vn 0.000000 -0.000000 1.000000
vn 0.000000 -0.000000 1.000000
vn 0.000000 -0.000000 1.000000
vn 0.000000 -0.000000 1.000000
vn 0.000000 -0.000000 1.000000
vn 0.000000 -0.000000 1.000000
vn -0.707107 0.707107 -0.000000
vn -0.707107 0.707107 -0.000000
vn -0.707107 0.707107 -0.000000
vn -0.707107 0.707107 -0.000000
vn 0.707107 0.707107 -0.000000
vn 0.707107 0.707107 -0.000000
vn 0.707107 0.707107 -0.000000
vn 0.707107 0.707107 -0.000000
vn -0.707107 -0.707107 0.000000
vn -0.707107 -0.707107 0.000000
vn -0.707107 -0.707107 0.000000
vn -0.707107 -0.707107 0.000000
vn 0.707107 -0.707107 0.000000
vn 0.707107 -0.707107 0.000000
vn 0.707107 -0.707107 0.000000
vn 0.707107 -0.707107 0.000000
vn -0.503336 0.503336 -0.702357
vn -0.503336 0.503336 -0.702357
vn -0.503337 0.503337 -0.702355
vn -0.503337 0.503337 -0.702355
vn 0.000000 0.816312 -0.577611
vn 0.000000 0.816312 -0.577611
vn 0.000000 0.816316 -0.577606
vn 0.000000 0.816316 -0.577606
vn 0.503337 0.503335 -0.702357
vn 0.503337 0.503335 -0.702357
vn 0.503337 0.503337 -0.702356
vn 0.503337 0.503337 -0.702356
vn 0.717502 -0.000000 -0.696557
vn 0.717502 -0.000000 -0.696557
vn 0.717497 -0.000000 -0.696562
vn 0.717497 -0.000000 -0.696562
vn 0.503336 -0.503335 -0.702357
vn 0.503336 -0.503336 -0.702357
vn 0.503337 -0.503337 -0.702355
vn 0.503337 -0.503337 -0.702355
vn 0.000000 -0.816317 -0.577605
vn 0.000000 -0.816317 -0.577605
vn 0.000000 -0.816316 -0.577606
vn 0.000000 -0.816316 -0.577606
vn -0.503339 -0.503337 -0.702354
vn -0.503339 -0.503337 -0.702354
vn -0.503337 -0.503337 -0.702355
vn -0.503337 -0.503337 -0.702355
vn -0.717502 -0.000000 -0.696557
vn -0.717502 -0.000000 -0.696557
vn -0.717497 -0.000000 -0.696562
vn -0.717497 -0.000000 -0.696562
vn -0.284417 0.284415 -0.915541
vn -0.284417 0.284415 -0.915541
vn -0.284419 0.284418 -0.915539
vn -0.284419 0.284418 -0.915539
vn 0.000000 0.522402 -0.852699
vn 0.000000 0.522402 -0.852699
vn 0.000000 0.522400 -0.852700
vn 0.000000 0.522400 -0.852700
vn 0.284416 0.284418 -0.915540
vn 0.284416 0.284418 -0.915540
vn 0.284419 0.284419 -0.915539
vn 0.284419 0.284419 -0.915539
vn 0.407714 -0.000000 -0.913110
vn 0.407714 -0.000000 -0.913110
vn 0.407719 -0.000000 -0.913108
vn 0.407719 -0.000000 -0.913108
vn 0.284416 -0.284415 -0.915541
vn 0.284416 -0.284415 -0.915541
vn 0.284419 -0.284419 -0.915539
vn 0.284419 -0.284419 -0.915539
vn 0.000000 -0.522405 -0.852697
vn 0.000000 -0.522405 -0.852697
vn 0.000000 -0.522401 -0.852700
vn 0.000000 -0.522401 -0.852700
vn -0.284416 -0.284418 -0.915540
vn -0.284416 -0.284418 -0.915540
vn -0.284419 -0.284419 -0.915539
vn -0.284419 -0.284419 -0.915539
vn -0.407714 -0.000000 -0.913110
vn -0.407714 -0.000000 -0.913110
vn -0.407719 -0.000000 -0.913108
vn -0.407719 -0.000000 -0.913108
vn -0.524311 -0.524311 0.670967
vn -0.524311 -0.524311 0.670967
vn -0.524310 -0.524310 0.670968
vn -0.524311 -0.524310 0.670968
vn 0.000000 -0.838859 0.544348
vn 0.000000 -0.838859 0.544348
vn 0.000000 -0.838859 0.544348
vn 0.000000 -0.838859 0.544348
vn 0.524310 -0.524308 0.670970
vn 0.524310 -0.524308 0.670969
vn 0.524310 -0.524310 0.670968
vn 0.524310 -0.524310 0.670968
vn 0.746867 0.000000 0.664973
vn 0.746867 0.000000 0.664973
vn 0.746871 0.000000 0.664969
vn 0.746871 0.000000 0.664969
vn 0.524311 0.524311 0.670967
vn 0.524311 0.524311 0.670967
vn 0.524310 0.524310 0.670968
vn 0.524311 0.524310 0.670968
vn 0.000000 0.838859 0.544348
vn 0.000000 0.838859 0.544348
vn 0.000000 0.838859 0.544348
vn 0.000000 0.838859 0.544348
vn -0.524309 0.524308 0.670970
vn -0.524309 0.524308 0.670970
vn -0.524311 0.524310 0.670968
vn -0.524310 0.524310 0.670968
vn -0.746867 0.000000 0.664973
vn -0.746867 0.000000 0.664973
vn -0.746871 0.000000 0.664969
vn -0.746871 0.000000 0.664969
vn -0.323426 -0.323427 0.889264
vn -0.323426 -0.323427 0.889264
vn -0.323425 -0.323425 0.889265
vn -0.323425 -0.323425 0.889265
vn 0.000000 -0.582832 0.812593
vn 0.000000 -0.582832 0.812593
vn 0.000000 -0.582829 0.812595
vn 0.000000 -0.582829 0.812595
vn 0.323425 -0.323426 0.889265
vn 0.323425 -0.323426 0.889265
vn 0.323425 -0.323425 0.889265
vn 0.323425 -0.323425 0.889265
vn 0.463281 0.000000 0.886212
vn 0.463281 0.000000 0.886212
vn 0.463275 0.000000 0.886214
vn 0.463275 0.000000 0.886214
vn 0.323426 0.323427 0.889264
vn 0.323426 0.323427 0.889264
vn 0.323425 0.323425 0.889265
vn 0.323425 0.323425 0.889265
vn 0.000000 0.582832 0.812593
vn 0.000000 0.582832 0.812593
vn 0.000000 0.582829 0.812595
vn 0.000000 0.582829 0.812595
vn -0.323425 0.323426 0.889265
vn -0.323425 0.323426 0.889265
vn -0.323425 0.323425 0.889265
vn -0.323425 0.323425 0.889265
vn -0.463281 0.000000 0.886212
vn -0.463281 0.000000 0.886212
vn -0.463275 0.000000 0.886215
vn -0.463275 0.000000 0.886215
vn 0.000000 0.838859 0.544348
vn 0.000000 0.838859 0.544348
vn 0.524311 0.524310 0.670968
vn 0.524311 0.524310 0.670968
vn 0.746871 0.000000 0.664969
vn 0.746871 0.000000 0.664969
vn 0.524310 -0.524310 0.670968
vn 0.524310 -0.524310 0.670968
vn 0.000000 -0.838859 0.544348
vn 0.000000 -0.838859 0.544348
vn -0.524311 -0.524310 0.670968
vn -0.524311 -0.524310 0.670968
vn -0.746871 0.000000 0.664969
vn -0.746871 0.000000 0.664969
vn -0.524311 0.524310 0.670968
vn -0.524311 0.524310 0.670968
vn 0.000000 1.000000 -0.000000
vn 0.000000 1.000000 -0.000000
vn 0.707107 0.707107 -0.000000
vn 0.707107 0.707107 -0.000000
vn 1.000000 0.000000 0.000000
vn 1.000000 0.000000 0.000000
vn 0.707107 -0.707107 0.000000
vn 0.707107 -0.707107 0.000000
vn 0.000000 -1.000000 0.000000
vn 0.000000 -1.000000 0.000000
vn -0.707107 -0.707107 0.000000
vn -0.707107 -0.707107 0.000000
vn -1.000000 0.000000 -0.000000
vn -1.000000 0.000000 -0.000000
vn -0.707107 0.707107 -0.000000
vn -0.707107 0.707107 -0.000000
vn 0.000000 0.838858 0.544350
vn 0.000000 0.838858 0.544350
vn 0.524312 0.524313 0.670963
vn 0.524312 0.524313 0.670963
vn 0.746871 0.000000 0.664969
vn 0.746871 0.000000 0.664969
vn 0.524313 -0.524315 0.670962
vn 0.524313 -0.524315 0.670962
vn 0.000000 -0.838863 0.544343
vn 0.000000 -0.838863 0.544343
vn -0.524312 -0.524313 0.670963
vn -0.524312 -0.524313 0.670963
vn -0.746871 0.000000 0.664969
vn -0.746871 0.000000 0.664969
vn -0.524313 0.524314 0.670962
vn -0.524313 0.524314 0.670962
vn 0.000000 0.582829 0.812594
vn 0.000000 0.582829 0.812594
vn 0.323425 0.323425 0.889265
vn 0.323425 0.323425 0.889265
vn 0.463275 0.000000 0.886214
vn 0.463275 0.000000 0.886215
vn 0.323425 -0.323425 0.889265
vn 0.323425 -0.323425 0.889265
vn 0.000000 -0.582829 0.812594
vn 0.000000 -0.582829 0.812594
vn -0.323425 -0.323425 0.889265
vn -0.323425 -0.323425 0.889265
vn -0.463275 0.000000 0.886215
vn -0.463275 0.000000 0.886215
vn -0.323425 0.323425 0.889265
vn -0.323425 0.323425 0.889265
vn 0.000000 0.582834 0.812591
vn 0.000000 0.582834 0.812591
vn 0.323427 0.323428 0.889263
vn 0.323427 0.323428 0.889263
vn 0.463282 0.000000 0.886211
vn 0.463282 0.000000 0.886211
vn 0.323427 -0.323427 0.889264
vn 0.323427 -0.323427 0.889264
vn 0.000000 -0.582834 0.812591
vn 0.000000 -0.582834 0.812591
vn -0.323427 -0.323428 0.889263
vn -0.323427 -0.323428 0.889263
vn -0.463281 0.000000 0.886212
vn -0.463281 0.000000 0.886212
vn -0.323427 0.323427 0.889264
vn -0.323427 0.323427 0.889264
vn -0.717497 -0.000000 -0.696562
vn -0.717497 -0.000000 -0.696562
vn -0.503337 -0.503337 -0.702355
vn -0.503337 -0.503337 -0.702355
vn 0.000000 -0.816316 -0.577606
vn 0.000000 -0.816316 -0.577606
vn 0.503337 -0.503337 -0.702355
vn 0.503337 -0.503337 -0.702355
vn 0.717497 -0.000000 -0.696562
vn 0.717497 -0.000000 -0.696562
vn 0.503337 0.503337 -0.702355
vn 0.503337 0.503337 -0.702356
vn 0.000000 0.816316 -0.577606
vn 0.000000 0.816316 -0.577606
vn -0.503337 0.503337 -0.702355
vn -0.503337 0.503337 -0.702355
vn -1.000000 0.000000 -0.000000
vn -1.000000 0.000000 -0.000000
vn -0.707106 -0.707107 0.000000
vn -0.707106 -0.707107 0.000000
vn 0.000000 -1.000000 0.000000
vn 0.000000 -1.000000 0.000000
vn 0.707106 -0.707107 0.000000
vn 0.707106 -0.707107 0.000000
vn 1.000000 0.000000 0.000000
vn 1.000000 0.000000 0.000000
vn 0.707106 0.707107 -0.000000
vn 0.707106 0.707107 -0.000000
vn 0.000000 1.000000 -0.000000
vn 0.000000 1.000000 -0.000000
vn -0.707106 0.707107 -0.000000
vn -0.707106 0.707107 -0.000000
vn -0.717493 -0.000000 -0.696566
vn -0.717492 -0.000000 -0.696566
vn -0.503336 -0.503338 -0.702355
vn -0.503336 -0.503339 -0.702355
vn 0.000000 -0.816315 -0.577607
vn 0.000000 -0.816315 -0.577607
vn 0.503339 -0.503337 -0.702354
vn 0.503339 -0.503337 -0.702354
vn 0.717496 -0.000000 -0.696563
vn 0.717496 -0.000000 -0.696563
vn 0.503336 0.503338 -0.702356
vn 0.503336 0.503338 -0.702356
vn 0.000000 0.816309 -0.577616
vn 0.000000 0.816309 -0.577616
vn -0.503335 0.503332 -0.702361
vn -0.503335 0.503332 -0.702361
vn -0.407719 -0.000000 -0.913108
vn -0.407719 -0.000000 -0.913108
vn -0.284419 -0.284419 -0.915539
vn -0.284419 -0.284419 -0.915539
vn 0.000000 -0.522400 -0.852700
vn 0.000000 -0.522400 -0.852700
vn 0.284419 -0.284419 -0.915539
vn 0.284419 -0.284419 -0.915539
vn 0.407719 -0.000000 -0.913108
vn 0.407719 -0.000000 -0.913108
vn 0.284419 0.284419 -0.915539
vn 0.284419 0.284419 -0.915539
vn 0.000000 0.522400 -0.852700
vn 0.000000 0.522400 -0.852700
vn -0.284419 0.284419 -0.915539
vn -0.284419 0.284419 -0.915539
vn -0.407707 -0.000000 -0.913113
vn -0.407707 -0.000000 -0.913113
vn -0.284415 -0.284419 -0.915540
vn -0.284415 -0.284419 -0.915540
vn 0.000000 -0.522396 -0.852703
vn 0.000000 -0.522396 -0.852703
vn 0.284415 -0.284418 -0.915541
vn 0.284415 -0.284418 -0.915541
vn 0.407707 -0.000000 -0.913113
vn 0.407707 -0.000000 -0.913113
vn 0.284415 0.284419 -0.915540
vn 0.284415 0.284419 -0.915540
vn 0.000000 0.522396 -0.852703
vn 0.000000 0.522396 -0.852703
vn -0.284415 0.284418 -0.915541
vn -0.284415 0.284418 -0.915541
s 1
g gem_Octagon_slot1
usemtl initialShadingGroup
f 104/120/1 57/67/2 58/68/3 103/119/4
s 2
f 62/74/5 99/113/6 100/114/7 61/73/8
s 3
f 102/117/9 59/69/10 60/71/11 101/115/12
s 4
f 98/111/13 63/75/14 64/77/15 97/110/16
s off
f 26/35/17 25/36/18 27/37/19 28/38/20 29/39/21 30/40/22 31/41/23 32/42/24
f 42/51/25 41/52/26 43/53/27 44/54/28 45/55/29 46/56/30 47/57/31 48/58/32
s 5
f 64/77/33 57/67/34 104/120/35 97/110/36
s 6
f 58/68/37 59/70/38 102/118/39 103/119/40
s 7
f 98/112/41 99/113/42 62/74/43 63/76/44
s 8
f 100/114/45 101/116/46 60/72/47 61/73/48
s 9
f 3/1/49 4/9/50 96/109/51 89/102/52
s 10
f 4/9/53 8/22/54 95/108/55 96/109/56
s 11
f 8/22/57 7/2/58 94/107/59 95/108/60
s 12
f 7/2/61 14/25/62 93/106/63 94/107/64
s 13
f 14/25/65 13/15/66 92/105/67 93/106/68
s 14
f 13/15/69 10/23/70 91/104/71 92/105/72
s 15
f 10/23/73 9/3/74 90/103/75 91/104/76
s 16
f 9/3/77 3/1/78 89/102/79 90/103/80
s 17
f 18/27/81 17/28/82 120/136/83 113/129/84
s 18
f 17/28/85 19/29/86 119/135/87 120/136/88
s 19
f 19/29/89 20/30/90 118/134/91 119/135/92
s 20
f 20/30/93 21/31/94 117/133/95 118/134/96
s 21
f 21/31/97 22/32/98 116/132/99 117/133/100
s 22
f 22/32/101 23/33/102 115/131/103 116/132/104
s 23
f 23/33/105 24/34/106 114/130/107 115/131/108
s 24
f 24/34/109 18/27/110 113/129/111 114/130/112
s 25
f 11/24/113 12/14/114 54/64/115 55/65/116
s 26
f 12/14/117 16/26/118 53/63/119 54/64/120
s 27
f 16/26/121 15/4/122 52/62/123 53/63/124
s 28
f 15/4/125 5/5/126 51/61/127 52/62/128
s 29
f 5/5/129 6/6/130 50/60/131 51/61/132
s 30
f 6/6/133 2/7/134 49/59/135 50/60/136
s 31
f 2/7/137 1/8/138 56/66/139 49/59/140
s 32
f 1/8/141 11/24/142 55/65/143 56/66/144
s 33
f 34/43/145 33/44/146 78/91/147 79/92/148
s 34
f 33/44/149 35/45/150 77/90/151 78/91/152
s 35
f 35/45/153 36/46/154 76/89/155 77/90/156
s 36
f 36/46/157 37/47/158 75/88/159 76/89/160
s 37
f 37/47/161 38/48/162 74/87/163 75/88/164
s 38
f 38/48/165 39/49/166 73/86/167 74/87/168
s 39
f 39/49/169 40/50/170 80/93/171 73/86/172
s 40
f 40/50/173 34/43/174 79/92/175 80/93/176
s 30
f 50/60/136 49/59/135 65/78/177 66/79/178
s 29
f 51/61/132 50/60/131 66/79/179 67/80/180
s 28
f 52/62/128 51/61/127 67/80/181 68/81/182
s 27
f 53/63/124 52/62/123 68/81/183 69/82/184
s 26
f 54/64/120 53/63/119 69/82/185 70/83/186
s 25
f 55/65/116 54/64/115 70/83/187 71/84/188
s 32
f 56/66/144 55/65/143 71/84/189 72/85/190
s 31
f 49/59/140 56/66/139 72/85/191 65/78/192
s 1
f 57/67/2 2/19/193 6/10/194 58/68/3
s 6
f 6/10/195 5/21/196 59/70/38 58/68/37
s 3
f 60/71/11 59/69/10 5/21/197 15/17/198
s 8
f 61/73/48 60/72/47 15/4/199 16/26/200
s 2
f 12/14/201 62/74/5 61/73/8 16/26/202
s 7
f 63/76/44 62/74/43 12/14/203 11/24/204
s 4
f 64/77/15 63/75/14 11/12/205 1/13/206
s 5
f 1/13/207 2/19/208 57/67/34 64/77/33
s 30
f 66/79/178 65/78/177 39/49/209 38/48/210
s 29
f 67/80/180 66/79/179 38/48/211 37/47/212
s 28
f 68/81/182 67/80/181 37/47/213 36/46/214
s 27
f 69/82/184 68/81/183 36/46/215 35/45/216
s 26
f 70/83/186 69/82/185 35/45/217 33/44/218
s 25
f 71/84/188 70/83/187 33/44/219 34/43/220
s 32
f 72/85/190 71/84/189 34/43/221 40/50/222
s 31
f 65/78/192 72/85/191 40/50/223 39/49/224
s 38
f 74/87/168 73/86/167 81/94/225 82/95/226
s 37
f 75/88/164 74/87/163 82/95/227 83/96/228
s 36
f 76/89/160 75/88/159 83/96/229 84/97/230
s 35
f 77/90/156 76/89/155 84/97/231 85/98/232
s 34
f 78/91/152 77/90/151 85/98/233 86/99/234
s 33
f 79/92/148 78/91/147 86/99/235 87/100/236
s 40
f 80/93/176 79/92/175 87/100/237 88/101/238
s 39
f 73/86/172 80/93/171 88/101/239 81/94/240
s 38
f 82/95/226 81/94/225 47/57/241 46/56/242
s 37
f 83/96/228 82/95/227 46/56/243 45/55/244
s 36
f 84/97/230 83/96/229 45/55/245 44/54/246
s 35
f 85/98/232 84/97/231 44/54/247 43/53/248
s 34
f 86/99/234 85/98/233 43/53/249 41/52/250
s 33
f 87/100/236 86/99/235 41/52/251 42/51/252
s 40
f 88/101/238 87/100/237 42/51/253 48/58/254
s 39
f 81/94/240 88/101/239 48/58/255 47/57/256
s 16
f 90/103/80 89/102/79 105/121/257 106/122/258
s 15
f 91/104/76 90/103/75 106/122/259 107/123/260
s 14
f 92/105/72 91/104/71 107/123/261 108/124/262
s 13
f 93/106/68 92/105/67 108/124/263 109/125/264
s 12
f 94/107/64 93/106/63 109/125/265 110/126/266
s 11
f 95/108/60 94/107/59 110/126/267 111/127/268
s 10
f 96/109/56 95/108/55 111/127/269 112/128/270
s 9
f 89/102/52 96/109/51 112/128/271 105/121/272
s 4
f 9/11/273 98/111/13 97/110/16 3/20/274
s 7
f 9/3/275 10/23/276 99/113/42 98/112/41
s 2
f 100/114/7 99/113/6 10/23/277 13/15/278
s 8
f 13/15/279 14/25/280 101/116/46 100/114/45
s 3
f 7/16/281 102/117/9 101/115/12 14/18/282
s 6
f 103/119/40 102/118/39 7/2/283 8/22/284
s 1
f 4/9/285 104/120/1 103/119/4 8/22/286
s 5
f 97/110/36 104/120/35 4/9/287 3/20/288
s 16
f 106/122/258 105/121/257 18/27/289 24/34/290
s 15
f 107/123/260 106/122/259 24/34/291 23/33/292
s 14
f 108/124/262 107/123/261 23/33/293 22/32/294
s 13
f 109/125/264 108/124/263 22/32/295 21/31/296
s 12
f 110/126/266 109/125/265 21/31/297 20/30/298
s 11
f 111/127/268 110/126/267 20/30/299 19/29/300
s 10
f 112/128/270 111/127/269 19/29/301 17/28/302
s 9
f 105/121/272 112/128/271 17/28/303 18/27/304
s 24
f 114/130/112 113/129/111 121/137/305 122/138/306
s 23
f 115/131/108 114/130/107 122/138/307 123/139/308
s 22
f 116/132/104 115/131/103 123/139/309 124/140/310
s 21
f 117/133/100 116/132/99 124/140/311 125/141/312
s 20
f 118/134/96 117/133/95 125/141/313 126/142/314
s 19
f 119/135/92 118/134/91 126/142/315 127/143/316
s 18
f 120/136/88 119/135/87 127/143/317 128/144/318
s 17
f 113/129/84 120/136/83 128/144/319 121/137/320
s 24
f 122/138/306 121/137/305 26/35/321 32/42/322
s 23
f 123/139/308 122/138/307 32/42/323 31/41/324
s 22
f 124/140/310 123/139/309 31/41/325 30/40/326
s 21
f 125/141/312 124/140/311 30/40/327 29/39/328
s 20
f 126/142/314 125/141/313 29/39/329 28/38/330
s 19
f 127/143/316 126/142/315 28/38/331 27/37/332
s 18
f 128/144/318 127/143/317 27/37/333 25/36/334
s 17
f 121/137/320 128/144/319 25/36/335 26/35/336
